<svg width="177" height="212" viewBox="0 0 177 212" fill="none" xmlns="http://www.w3.org/2000/svg">
<path d="M15.444 40L9.9 30.208H7.524V40H2.484V14.872H11.916C13.86 14.872 15.516 15.22 16.884 15.916C18.252 16.588 19.272 17.512 19.944 18.688C20.64 19.84 20.988 21.136 20.988 22.576C20.988 24.232 20.508 25.732 19.548 27.076C18.588 28.396 17.16 29.308 15.264 29.812L21.276 40H15.444ZM7.524 26.428H11.736C13.104 26.428 14.124 26.104 14.796 25.456C15.468 24.784 15.804 23.86 15.804 22.684C15.804 21.532 15.468 20.644 14.796 20.02C14.124 19.372 13.104 19.048 11.736 19.048H7.524V26.428ZM44.0865 29.596C44.0865 30.316 44.0385 30.964 43.9425 31.54H29.3625C29.4825 32.98 29.9865 34.108 30.8745 34.924C31.7625 35.74 32.8545 36.148 34.1505 36.148C36.0225 36.148 37.3545 35.344 38.1465 33.736H43.5825C43.0065 35.656 41.9025 37.24 40.2705 38.488C38.6385 39.712 36.6345 40.324 34.2585 40.324C32.3385 40.324 30.6105 39.904 29.0745 39.064C27.5625 38.2 26.3745 36.988 25.5105 35.428C24.6705 33.868 24.2505 32.068 24.2505 30.028C24.2505 27.964 24.6705 26.152 25.5105 24.592C26.3505 23.032 27.5265 21.832 29.0385 20.992C30.5505 20.152 32.2905 19.732 34.2585 19.732C36.1545 19.732 37.8465 20.14 39.3345 20.956C40.8465 21.772 42.0105 22.936 42.8265 24.448C43.6665 25.936 44.0865 27.652 44.0865 29.596ZM38.8665 28.156C38.8425 26.86 38.3745 25.828 37.4625 25.06C36.5505 24.268 35.4345 23.872 34.1145 23.872C32.8665 23.872 31.8105 24.256 30.9465 25.024C30.1065 25.768 29.5905 26.812 29.3985 28.156H38.8665ZM46.4692 29.956C46.4692 27.94 46.8652 26.152 47.6572 24.592C48.4733 23.032 49.5653 21.832 50.9333 20.992C52.3253 20.152 53.8733 19.732 55.5773 19.732C57.0653 19.732 58.3613 20.032 59.4653 20.632C60.5933 21.232 61.4933 21.988 62.1653 22.9V20.056H67.2413V40H62.1653V37.084C61.5173 38.02 60.6173 38.8 59.4653 39.424C58.3373 40.024 57.0293 40.324 55.5413 40.324C53.8613 40.324 52.3253 39.892 50.9333 39.028C49.5653 38.164 48.4733 36.952 47.6572 35.392C46.8652 33.808 46.4692 31.996 46.4692 29.956ZM62.1653 30.028C62.1653 28.804 61.9253 27.76 61.4453 26.896C60.9653 26.008 60.3173 25.336 59.5013 24.88C58.6853 24.4 57.8093 24.16 56.8733 24.16C55.9373 24.16 55.0733 24.388 54.2812 24.844C53.4893 25.3 52.8413 25.972 52.3373 26.86C51.8573 27.724 51.6173 28.756 51.6173 29.956C51.6173 31.156 51.8573 32.212 52.3373 33.124C52.8413 34.012 53.4893 34.696 54.2812 35.176C55.0973 35.656 55.9613 35.896 56.8733 35.896C57.8093 35.896 58.6853 35.668 59.5013 35.212C60.3173 34.732 60.9653 34.06 61.4453 33.196C61.9253 32.308 62.1653 31.252 62.1653 30.028ZM70.8677 30.028C70.8677 27.964 71.2877 26.164 72.1277 24.628C72.9677 23.068 74.1317 21.868 75.6197 21.028C77.1077 20.164 78.8117 19.732 80.7317 19.732C83.2037 19.732 85.2437 20.356 86.8517 21.604C88.4837 22.828 89.5757 24.556 90.1277 26.788H84.6917C84.4037 25.924 83.9117 25.252 83.2157 24.772C82.5437 24.268 81.7037 24.016 80.6957 24.016C79.2557 24.016 78.1157 24.544 77.2757 25.6C76.4357 26.632 76.0157 28.108 76.0157 30.028C76.0157 31.924 76.4357 33.4 77.2757 34.456C78.1157 35.488 79.2557 36.004 80.6957 36.004C82.7357 36.004 84.0677 35.092 84.6917 33.268H90.1277C89.5757 35.428 88.4837 37.144 86.8517 38.416C85.2197 39.688 83.1797 40.324 80.7317 40.324C78.8117 40.324 77.1077 39.904 75.6197 39.064C74.1317 38.2 72.9677 37 72.1277 35.464C71.2877 33.904 70.8677 32.092 70.8677 30.028ZM99.6879 24.196V33.844C99.6879 34.516 99.8439 35.008 100.156 35.32C100.492 35.608 101.044 35.752 101.812 35.752H104.152V40H100.984C96.7359 40 94.6119 37.936 94.6119 33.808V24.196H92.2359V20.056H94.6119V15.124H99.6879V20.056H104.152V24.196H99.6879Z" fill="white"/>
<path d="M125.464 17.068C124.84 17.068 124.312 16.852 123.88 16.42C123.448 15.988 123.232 15.46 123.232 14.836C123.232 14.212 123.448 13.684 123.88 13.252C124.312 12.82 124.84 12.604 125.464 12.604C126.064 12.604 126.568 12.82 126.976 13.252C127.408 13.684 127.624 14.212 127.624 14.836C127.624 15.46 127.408 15.988 126.976 16.42C126.568 16.852 126.064 17.068 125.464 17.068ZM127.048 20.272V40H123.772V20.272H127.048ZM153.367 14.908L143.899 40H140.119L130.651 14.908H134.143L142.027 36.544L149.911 14.908H153.367ZM174.96 29.38C174.96 30.004 174.924 30.664 174.852 31.36H159.084C159.204 33.304 159.864 34.828 161.064 35.932C162.288 37.012 163.764 37.552 165.492 37.552C166.908 37.552 168.084 37.228 169.02 36.58C169.98 35.908 170.652 35.02 171.036 33.916H174.564C174.036 35.812 172.98 37.36 171.396 38.56C169.812 39.736 167.844 40.324 165.492 40.324C163.62 40.324 161.94 39.904 160.452 39.064C158.988 38.224 157.836 37.036 156.996 35.5C156.156 33.94 155.736 32.14 155.736 30.1C155.736 28.06 156.144 26.272 156.96 24.736C157.776 23.2 158.916 22.024 160.38 21.208C161.868 20.368 163.572 19.948 165.492 19.948C167.364 19.948 169.02 20.356 170.46 21.172C171.9 21.988 173.004 23.116 173.772 24.556C174.564 25.972 174.96 27.58 174.96 29.38ZM171.576 28.696C171.576 27.448 171.3 26.38 170.748 25.492C170.196 24.58 169.44 23.896 168.48 23.44C167.544 22.96 166.5 22.72 165.348 22.72C163.692 22.72 162.276 23.248 161.1 24.304C159.948 25.36 159.288 26.824 159.12 28.696H171.576Z" fill="white"/>
<rect width="130" height="150" transform="translate(23.5 62)" fill="#405CC0"/>
<g filter="url(#filter0_d_1_6)">
<path d="M52.8621 102.39C60.4523 102.39 67.0105 103.821 72.5366 106.684C78.1294 109.481 82.3906 113.509 85.3201 118.769C88.3163 124.029 89.8143 130.221 89.8143 137.345C89.8143 144.469 88.3163 150.661 85.3201 155.921C82.3906 161.114 78.1294 165.109 72.5366 167.905C67.0105 170.635 60.4523 172 52.8621 172H31.1901V102.39H52.8621ZM52.8621 164.51C61.8505 164.51 68.7083 162.146 73.4355 157.419C78.1627 152.625 80.5263 145.934 80.5263 137.345C80.5263 128.689 78.1294 121.931 73.3356 117.071C68.6084 112.211 61.7839 109.78 52.8621 109.78H40.2783V164.51H52.8621ZM123.873 172.699C119.279 172.699 115.151 171.9 111.489 170.302C107.894 168.638 105.064 166.374 103 163.511C100.936 160.581 99.8711 157.219 99.8045 153.424H109.492C109.825 156.686 111.157 159.45 113.487 161.713C115.884 163.91 119.346 165.009 123.873 165.009C128.201 165.009 131.597 163.944 134.06 161.813C136.59 159.616 137.855 156.82 137.855 153.424C137.855 150.761 137.123 148.597 135.658 146.932C134.193 145.268 132.362 144.003 130.165 143.137C127.968 142.272 125.005 141.34 121.277 140.341C116.683 139.142 112.988 137.944 110.191 136.746C107.461 135.547 105.098 133.683 103.1 131.153C101.169 128.556 100.204 125.094 100.204 120.766C100.204 116.971 101.169 113.609 103.1 110.679C105.031 107.75 107.728 105.486 111.19 103.888C114.719 102.29 118.747 101.491 123.274 101.491C129.799 101.491 135.126 103.122 139.254 106.385C143.448 109.647 145.812 113.975 146.344 119.368H136.357C136.024 116.705 134.626 114.374 132.163 112.377C129.699 110.313 126.437 109.281 122.375 109.281C118.58 109.281 115.484 110.28 113.087 112.277C110.69 114.208 109.492 116.938 109.492 120.467C109.492 122.997 110.191 125.061 111.589 126.659C113.054 128.257 114.818 129.488 116.882 130.354C119.013 131.153 121.976 132.085 125.771 133.15C130.365 134.415 134.06 135.68 136.857 136.945C139.653 138.144 142.05 140.041 144.047 142.638C146.045 145.168 147.044 148.63 147.044 153.025C147.044 156.42 146.145 159.616 144.347 162.612C142.549 165.608 139.886 168.038 136.357 169.903C132.829 171.767 128.667 172.699 123.873 172.699Z" fill="white"/>
</g>
<defs>
<filter id="filter0_d_1_6" x="29.1901" y="101.491" width="123.853" height="80.208" filterUnits="userSpaceOnUse" color-interpolation-filters="sRGB">
<feFlood flood-opacity="0" result="BackgroundImageFix"/>
<feColorMatrix in="SourceAlpha" type="matrix" values="0 0 0 0 0 0 0 0 0 0 0 0 0 0 0 0 0 0 127 0" result="hardAlpha"/>
<feOffset dx="2" dy="5"/>
<feGaussianBlur stdDeviation="2"/>
<feComposite in2="hardAlpha" operator="out"/>
<feColorMatrix type="matrix" values="0 0 0 0 0 0 0 0 0 0 0 0 0 0 0 0 0 0 0.25 0"/>
<feBlend mode="normal" in2="BackgroundImageFix" result="effect1_dropShadow_1_6"/>
<feBlend mode="normal" in="SourceGraphic" in2="effect1_dropShadow_1_6" result="shape"/>
</filter>
</defs>
</svg>
